<svg xmlns="http://www.w3.org/2000/svg" xmlns:xlink="http://www.w3.org/1999/xlink" version="1.1" width="458" height="458" viewBox="0 0 458 458" xml:space="preserve">
<desc>Created with Fabric.js 3.5.0</desc>
<defs>
</defs>
<rect x="0" y="0" width="100%" height="100%" fill="rgba(255,255,255,0)"/>
<g transform="matrix(1 0 0 1 233.6692 229)" style="" id="508989">
		
<path xml:space="preserve" font-family="Bigelow Rules" font-size="200" font-style="normal" font-weight="normal" style="stroke: none; stroke-width: 1; stroke-dasharray: none; stroke-linecap: butt; stroke-dashoffset: 0; stroke-linejoin: miter; stroke-miterlimit: 4; is-custom-font: none; font-file-url: none; fill: rgb(255,255,255); fill-rule: nonzero; opacity: 1; white-space: pre;" d="M-168.10-68.62L-170.44-10.22Q-168.49-14.71-165.56-21.21Q-162.63-27.70-159.46-34.93Q-156.28-42.15-153.16-49.38Q-150.03-56.61-147.54-62.56Q-145.05-68.52-143.49-72.57Q-141.93-76.63-141.93-77.41L-141.93-77.41Q-141.93-79.07-143.05-79.85Q-144.17-80.63-145.69-80.92Q-147.20-81.21-148.86-81.21Q-150.52-81.21-151.69-81.21L-151.69-81.21L-151.69-84.54L-120.44-86.39L-120.44-82.97L-125.03-82.97Q-126.79-82.97-128.55-82.78Q-130.30-82.58-131.87-82.00Q-133.43-81.41-134.70-80.38Q-135.97-79.36-136.65-77.60L-136.65-77.60L-162.73-16.57L-146.32 42.61Q-145.54 45.45-144.46 48.72Q-143.39 51.99-141.97 55.31Q-140.56 58.63-138.61 61.66Q-136.65 64.68-134.26 66.93Q-131.87 69.18-128.84 70.40Q-125.81 71.62-122.10 71.23L-122.10 71.23L-121.71 73.47Q-123.37 73.96-125.13 74.20Q-126.89 74.45-128.64 74.45L-128.64 74.45Q-134.70 74.45-139.29 71.57Q-143.88 68.69-147.20 64.20Q-150.52 59.70-152.72 54.33Q-154.91 48.96-156.28 43.98L-156.28 43.98L-168.88-2.02L-170.83 2.87L-172.88 54.23Q-172.98 55.70-172.39 57.07Q-171.81 58.43-170.78 59.51Q-169.76 60.58-168.44 61.22Q-167.12 61.85-165.66 61.85L-165.66 61.85L-161.85 61.85L-161.85 65.07L-193.68 65.46L-193.68 62.05L-190.07 62.05Q-187.04 62.05-184.94 59.75Q-182.84 57.46-182.65 54.62L-182.65 54.62L-178.25-66.76L-178.25-67.15Q-178.25-69.79-179.23-71.21Q-180.21-72.62-181.77-73.30Q-183.33-73.99-185.29-74.09Q-187.24-74.18-189.29-74.18L-189.29-74.18L-189.29-77.41L-157.06-79.16L-157.06-75.94L-160.68-75.94Q-162.14-75.94-163.41-75.31Q-164.68-74.67-165.71-73.65Q-166.73-72.62-167.37-71.30Q-168.00-69.98-168.10-68.62L-168.10-68.62Z"/><path xml:space="preserve" font-family="Bigelow Rules" font-size="200" font-style="normal" font-weight="normal" style="stroke: none; stroke-width: 1; stroke-dasharray: none; stroke-linecap: butt; stroke-dashoffset: 0; stroke-linejoin: miter; stroke-miterlimit: 4; is-custom-font: none; font-file-url: none; fill: rgb(255,255,255); fill-rule: nonzero; opacity: 1; white-space: pre;" d="M-75.53-58.17L-75.53-67.54Q-75.53-72.23-75.48-75.06Q-75.43-77.89-76.36-79.41Q-77.28-80.92-79.77-81.31Q-82.26-81.70-87.25-81.61L-87.25-81.61L-87.25-84.54L-55.31-84.93L-55.31-81.80L-61.46-81.80Q-62.44-81.80-63.27-81.21Q-64.10-80.63-64.69-79.75Q-65.27-78.87-65.57-77.85Q-65.86-76.82-65.86-75.94L-65.86-75.94L-65.86 56.19Q-65.86 57.26-65.47 58.38Q-65.08 59.51-64.34 60.48Q-63.61 61.46-62.64 62.05Q-61.66 62.63-60.49 62.63L-60.49 62.63L-54.92 62.44L-54.73 65.86L-86.46 66.83L-86.66 63.41L-81.09 63.22Q-79.92 63.12-78.90 62.44Q-77.87 61.75-77.19 60.73Q-76.50 59.70-76.11 58.48Q-75.72 57.26-75.72 56.19L-75.72 56.19L-75.53-45.18L-93.50 18.20L-105.12-15.20L-103.65 49.64Q-103.65 50.72-103.26 51.89Q-102.87 53.06-102.14 53.99Q-101.41 54.92-100.43 55.55Q-99.45 56.19-98.28 56.19L-98.28 56.19L-92.71 55.99L-92.52 59.41L-118.50 60.19L-118.69 56.87L-113.12 56.68Q-111.95 56.68-110.93 55.99Q-109.90 55.31-109.22 54.28Q-108.53 53.26-108.14 52.09Q-107.75 50.91-107.85 49.84L-107.85 49.84L-109.90-50.55Q-109.90-52.80-111.32-54.60Q-112.73-56.41-115.27-56.41L-115.27-56.41Q-116.93-56.41-118.50-56.31Q-120.06-56.21-121.72-56.21L-121.72-56.21L-121.91-59.14L-95.84-60.61L-95.64-57.58Q-97.60-57.48-99.40-57.44Q-101.21-57.39-102.68-56.85Q-104.14-56.31-105.02-54.99Q-105.90-53.68-105.90-51.14L-105.90-51.14L-105.70-41.37Q-104.82-38.64-103.60-34.83Q-102.38-31.02-100.67-25.94Q-98.96-20.86-96.72-14.42Q-94.47-7.97-91.64 0.04L-91.64 0.04L-75.53-58.17Z"/><path xml:space="preserve" font-family="Bigelow Rules" font-size="200" font-style="normal" font-weight="normal" style="stroke: none; stroke-width: 1; stroke-dasharray: none; stroke-linecap: butt; stroke-dashoffset: 0; stroke-linejoin: miter; stroke-miterlimit: 4; is-custom-font: none; font-file-url: none; fill: rgb(255,255,255); fill-rule: nonzero; opacity: 1; white-space: pre;" d="M0.35-91.18L3.96-91.18L3.37-32.78L-0.05-32.78Q-0.05-35.51 0.00-37.86Q0.05-40.20 0.05-42.49Q0.05-44.79 0.10-47.13Q0.15-49.48 0.15-52.21L0.15-52.21Q0.15-55.04-0.97-58.66Q-2.10-62.27-4.00-65.49Q-5.90-68.71-8.59-70.96Q-11.28-73.21-14.30-73.21L-14.30-73.21Q-17.33-73.21-19.43-71.25Q-21.53-69.30-22.95-66.22Q-24.36-63.15-25.14-59.39Q-25.92-55.63-26.31-51.92Q-26.71-48.21-26.80-44.98Q-26.90-41.76-26.90-39.81L-26.90-39.81Q-26.90-32.78-26.22-27.70Q-25.53-22.62-23.53-18.71Q-21.53-14.81-18.06-11.54Q-14.60-8.27-9.03-4.75L-9.03-4.75Q-4.24-1.63-1.36 2.48Q1.52 6.58 3.03 11.31Q4.54 16.05 5.03 21.08Q5.52 26.11 5.52 30.99L5.52 30.99Q5.52 34.90 5.28 39.00Q5.03 43.10 4.25 47.06Q3.47 51.01 2.10 54.58Q0.74 58.14-1.56 60.83Q-3.85 63.51-7.13 65.07Q-10.40 66.64-14.89 66.64L-14.89 66.64Q-20.46 66.64-24.31 64.39Q-28.17 62.14-30.51 58.48Q-32.86 54.82-33.88 50.18Q-34.91 45.54-34.91 40.86L-34.91 40.86Q-34.91 38.51-34.62 35.44Q-34.32 32.36-33.39 29.58Q-32.47 26.79-30.56 24.89Q-28.66 22.98-25.44 22.98L-25.44 22.98Q-22.41 22.98-20.75 24.64Q-19.09 26.30-18.36 28.75Q-17.62 31.19-17.53 33.97Q-17.43 36.75-17.43 39.00L-17.43 39.00L-17.43 43.00L-20.85 42.81L-20.85 36.66Q-20.85 35.48-20.89 33.73Q-20.94 31.97-21.38 30.36Q-21.82 28.75-22.75 27.57Q-23.68 26.40-25.44 26.40L-25.44 26.40Q-27.68 26.40-28.90 28.11Q-30.12 29.82-30.71 32.16Q-31.30 34.51-31.39 36.95Q-31.49 39.39-31.49 40.86L-31.49 40.86Q-31.49 44.47-30.61 48.33Q-29.73 52.18-27.83 55.36Q-25.92 58.53-22.95 60.58Q-19.97 62.63-15.87 62.63L-15.87 62.63Q-12.64 62.63-10.40 60.39Q-8.15 58.14-6.73 54.67Q-5.32 51.21-4.59 46.96Q-3.85 42.71-3.51 38.66Q-3.17 34.61-3.12 31.19Q-3.07 27.77-3.07 26.01L-3.07 26.01Q-3.07 21.71-3.51 17.61Q-3.95 13.51-5.22 9.85Q-6.49 6.19-8.79 3.16Q-11.08 0.13-14.89-2.02L-14.89-2.02Q-21.53-5.73-25.58-10.02Q-29.64-14.32-31.83-19.25Q-34.03-24.18-34.76-29.80Q-35.49-35.41-35.49-41.76L-35.49-41.76Q-35.49-44.98-35.30-48.99Q-35.10-52.99-34.42-57.05Q-33.74-61.10-32.47-64.96Q-31.20-68.81-29.00-71.79Q-26.80-74.77-23.63-76.58Q-20.46-78.38-16.06-78.38L-16.06-78.38Q-12.45-78.38-9.71-77.02Q-6.98-75.65-5.03-73.45Q-3.07-71.25-1.80-68.62Q-0.53-65.98 0.15-63.54L0.15-63.54L0.35-91.18Z"/><path xml:space="preserve" font-family="Bigelow Rules" font-size="200" font-style="normal" font-weight="normal" style="stroke: none; stroke-width: 1; stroke-dasharray: none; stroke-linecap: butt; stroke-dashoffset: 0; stroke-linejoin: miter; stroke-miterlimit: 4; is-custom-font: none; font-file-url: none; fill: rgb(255,255,255); fill-rule: nonzero; opacity: 1; white-space: pre;" d="M56.78 48.47L57.17 38.61Q56.00 40.66 54.05 42.42Q52.10 44.18 49.85 45.54Q47.60 46.91 45.16 47.69Q42.72 48.47 40.57 48.47L40.57 48.47Q37.25 48.47 34.81 47.06Q32.37 45.64 30.71 43.35Q29.05 41.05 28.22 38.17Q27.39 35.29 27.39 32.26L27.39 32.26Q27.39 26.60 29.83 22.25Q32.27 17.91 35.89 14.29Q39.50 10.68 43.80 7.36Q48.09 4.04 51.71 0.23Q55.32-3.58 57.76-8.17Q60.20-12.76 60.20-19.01L60.20-19.01Q60.30-22.04 59.62-25.36Q58.93-28.68 57.22-31.46Q55.51-34.24 52.88-36.00Q50.24-37.76 46.63-37.76L46.63-37.76Q42.72-37.76 40.23-35.90Q37.74-34.05 36.28-31.17Q34.81-28.29 34.27-24.72Q33.74-21.16 33.74-17.74L33.74-17.74Q33.74-16.37 33.93-14.32Q34.13-12.27 34.62-10.37Q35.10-8.46 35.93-7.09Q36.76-5.73 38.03-5.73L38.03-5.73Q39.40-5.73 40.23-6.61Q41.06-7.48 41.50-8.71Q41.94-9.93 41.99-11.29Q42.04-12.66 41.94-13.73L41.94-13.73L45.36-13.93Q45.46-11.68 45.11-9.58Q44.77-7.48 43.89-5.82Q43.01-4.16 41.55-3.19Q40.08-2.21 38.03-2.21L38.03-2.21Q35.20-2.21 33.30-3.82Q31.39-5.43 30.32-7.83Q29.24-10.22 28.81-12.95Q28.37-15.69 28.37-17.93L28.37-17.93Q28.37-22.33 29.54-26.53Q30.71-30.73 33.05-34.10Q35.40-37.46 39.01-39.52Q42.62-41.57 47.60-41.57L47.60-41.57Q53.85-41.57 57.96-38.54Q62.06-35.51 64.50-30.87Q66.94-26.23 67.97-20.81Q68.99-15.39 68.99-10.61L68.99-10.61Q68.99 1.79 68.11 14.05Q67.23 26.30 67.23 38.80L67.23 38.80Q67.23 41.54 67.92 42.95Q68.60 44.37 69.87 44.96Q71.14 45.54 72.95 45.64Q74.75 45.74 77.00 45.84L77.00 45.84L77.00 49.25Q71.82 49.06 66.79 48.91Q61.76 48.77 56.78 48.47L56.78 48.47ZM45.94 42.22L45.94 42.22Q47.31 42.22 48.92 41.49Q50.53 40.76 52.10 39.44Q53.66 38.12 55.07 36.41Q56.49 34.70 57.56 32.65L57.56 32.65L59.42-2.60Q56.59 1.30 52.83 5.16Q49.07 9.02 45.70 13.02Q42.33 17.03 39.94 21.32Q37.55 25.62 37.55 30.41L37.55 30.41Q37.55 32.16 38.03 34.26Q38.52 36.36 39.55 38.12Q40.57 39.88 42.18 41.05Q43.80 42.22 45.94 42.22Z"/><path xml:space="preserve" font-family="Bigelow Rules" font-size="200" font-style="normal" font-weight="normal" style="stroke: none; stroke-width: 1; stroke-dasharray: none; stroke-linecap: butt; stroke-dashoffset: 0; stroke-linejoin: miter; stroke-miterlimit: 4; is-custom-font: none; font-file-url: none; fill: rgb(255,255,255); fill-rule: nonzero; opacity: 1; white-space: pre;" d="M91.05-21.74L91.05-21.74L91.05-25.16L99.16-25.36Q99.06-30.73 99.01-34.39Q98.96-38.05 98.96-40.54Q98.96-43.03 98.96-44.69Q98.96-46.35 98.96-47.82L98.96-47.82Q98.96-51.72 99.84-55.87Q100.72-60.02 102.77-63.44Q104.82-66.86 108.14-69.01Q111.46-71.16 116.25-71.16L116.25-71.16Q122.40-71.16 126.11-67.45Q129.82-63.73 129.82-57.58L129.82-57.58Q129.82-56.12 129.58-54.36Q129.34-52.60 128.85-50.84Q128.36-49.09 127.48-47.57Q126.60-46.06 125.43-44.98L125.43-44.98L123.57-46.55Q125.23-48.40 126.01-51.28Q126.80-54.16 126.80-56.41L126.80-56.41Q126.80-58.46 126.21-60.27Q125.62-62.07 124.55-63.49Q123.48-64.91 121.82-65.74Q120.16-66.57 118.01-66.57L118.01-66.57Q114.88-66.57 113.17-64.76Q111.46-62.95 110.63-60.41Q109.80-57.88 109.61-54.99Q109.41-52.11 109.41-49.96L109.41-49.96L109.41-25.55L109.61-25.55Q113.12-25.55 115.32-25.70Q117.52-25.84 118.74-26.72Q119.96-27.60 120.35-29.55Q120.74-31.51 120.64-35.22L120.64-35.22L123.96-35.22L124.16 1.60L120.84 1.60L120.84-13.54Q120.84-16.86 119.23-19.50Q117.62-22.13 114.00-22.13L114.00-22.13L109.41-22.13L110.39 45.45Q110.39 46.62 110.88 48.08Q111.37 49.55 112.20 50.82Q113.03 52.09 114.20 52.96Q115.37 53.84 116.84 53.84L116.84 53.84L119.57 53.84L119.57 57.26L90.37 57.65L90.37 54.04L93.79 54.04Q95.16 54.04 96.38 53.36Q97.60 52.67 98.52 51.55Q99.45 50.43 99.99 49.11Q100.53 47.79 100.43 46.62L100.43 46.62L99.16-21.94Q97.40-21.74 95.35-21.74Q93.30-21.74 91.05-21.74Z"/><path xml:space="preserve" font-family="Bigelow Rules" font-size="200" font-style="normal" font-weight="normal" style="stroke: none; stroke-width: 1; stroke-dasharray: none; stroke-linecap: butt; stroke-dashoffset: 0; stroke-linejoin: miter; stroke-miterlimit: 4; is-custom-font: none; font-file-url: none; fill: rgb(255,255,255); fill-rule: nonzero; opacity: 1; white-space: pre;" d="M162.24-44.20L163.02-6.61Q167.41-6.61 170.20-6.46Q172.98-6.31 174.45-7.09Q175.91-7.88 176.35-10.02Q176.79-12.17 176.69-16.76L176.69-16.76L180.01-16.76L180.01 9.61L176.69 9.61L176.69 1.99Q176.69 1.21 176.45 0.23Q176.20-0.75 175.71-1.58Q175.23-2.41 174.54-2.99Q173.86-3.58 172.88-3.58L172.88-3.58L163.02-3.38L164.09 35.58Q167.12 35.58 169.95 35.58Q172.79 35.58 175.62 35.39L175.62 35.39Q177.47 35.29 179.18 34.31Q180.89 33.34 182.21 31.87Q183.53 30.41 184.31 28.60Q185.09 26.79 185.09 25.04L185.09 25.04L185.29 11.27L188.70 11.27L188.41 38.61Q177.18 38.80 165.85 39.15Q154.52 39.49 143.29 39.78L143.29 39.78L143.10 36.27Q145.64 36.27 147.64 36.22Q149.64 36.17 151.01 35.48Q152.38 34.80 153.11 33.24Q153.84 31.68 153.84 28.65L153.84 28.65L153.84 28.06L152.47-34.93Q152.38-37.95 151.59-39.76Q150.81-41.57 149.40-42.45Q147.98-43.32 145.88-43.52Q143.78-43.71 141.05-43.62L141.05-43.62L140.85-46.94L186.26-48.21L186.46-20.38L183.04-20.38L182.84-34.93Q182.84-38.73 181.23-41.57Q179.62-44.40 175.23-44.40L175.23-44.40Q171.91-44.40 168.73-44.30Q165.56-44.20 162.24-44.20L162.24-44.20Z"/></g>
</svg>